<svg xmlns="http://www.w3.org/2000/svg" width="750" height="750" viewBox="0 0 0 0 750 0 750"><g id="Layer_1" fill="#5C2D73"><path d="M214.199 246.364v72.798c0 6.294 5.117 11.415 11.405 11.415 6.29 0 11.408-5.121 11.408-11.415l.023-153.919c1.046-12.196 11.454-21.75 23.698-21.75l140.806-.042h11.18c6.29 0 11.407-5.124 11.407-11.421 0-6.289-5.117-11.408-11.407-11.408H221.988a6.86 6.86 0 0 1-.407.013c-3.742 0-6.928 2.86-7.347 6.55v118.204c0 .388-.015.682-.035.973v.002zm11.405 96.589c-13.112 0-23.779-10.673-23.779-23.791l.008-73.295.028-.469-.001-118.767.022-.256c.838-10.053 9.32-17.949 19.381-18.114.145-.009.291-.014.439-.014h191.017c13.112 0 23.781 10.67 23.781 23.783 0 13.122-10.669 23.797-23.781 23.797h-11.178l-140.808.042c-5.796 0-10.734 4.46-11.348 10.196v153.097c0 13.118-10.669 23.791-23.781 23.791zm68.467-16.74v72.831c0 6.294 5.127 11.415 11.43 11.415 6.284 0 11.395-5.121 11.395-11.414l.022-153.911c1.017-12.053 11.185-21.528 23.245-21.754l.041-.005.714-.042h151.673c6.296 0 11.418-5.123 11.418-11.419 0-6.297-5.122-11.42-11.418-11.42H303.664l-2.197.023a7.382 7.382 0 0 0-7.372 6.561v118.193c0 .37-.01.658-.024.942zm11.43 96.622c-13.125 0-23.804-10.673-23.804-23.791l.007-73.281c.009-.184.017-.293.017-.407V206.503l.023-.268c.832-9.585 8.213-16.981 17.558-17.978l.181-.139h193.108c13.119 0 23.792 10.675 23.792 23.796 0 13.12-10.673 23.795-23.792 23.795H341.373a6.966 6.966 0 0 1-.768.042c-5.798 0-10.732 4.459-11.335 10.194v153.1c0 13.118-10.663 23.79-23.769 23.79zm-48.769 103.424c-6.405 0-11.527 5.117-11.527 11.408 0 6.304 5.122 11.433 11.418 11.433h72.881c.256-.024.5-.038.745-.038l116.744.013c.221-.024.471-.042.745-.042 3.745 0 6.945-2.859 7.381-6.551l-.011-118.295c0-.159.004-.323.008-.488l.003-.133v-73.013c0-6.297-5.111-11.42-11.395-11.42-6.303 0-11.43 5.123-11.43 11.42v153.641l-.022.256c-1 12.037-11.137 21.501-23.187 21.755-.078.009-.157.019-.24.027l-.574.027H256.732zm73.35 35.215h-73.459c-13.118 0-23.792-10.679-23.792-23.807 0-13.114 10.674-23.784 23.792-23.784h151.158c.238-.029.505-.048.806-.048 5.806 0 10.74-4.455 11.333-10.182V350.662c0-13.23 10.679-23.903 23.804-23.903 13.106 0 23.769 10.673 23.769 23.794v73.019c0 .138-.003.279-.007.419.005.098.007.195.007.294v118.774l-.023.268c-.879 10.125-9.081 17.806-19.185 18.074l-.331.05-117.872.023zm6.229 45.086c-6.087.232-10.968 5.259-10.968 11.406 0 6.301 5.118 11.427 11.407 11.427h72.944c.22-.014.437-.025.681-.025h116.737c.25-.029.499-.042.75-.042 3.75 0 6.941-2.855 7.36-6.538V504.577c0-.375.011-.692.036-.999v-72.731c0-6.301-5.123-11.427-11.42-11.427-6.216 0-11.291 5-11.416 11.192.007.119.011.238.011.355v153.534l-.024.263c-1.027 11.979-11.094 21.407-23.059 21.731l-.335.07-152.704-.005zm73.1 22.856l.528 6.165-.528-6.165zm.528 12.352H336.75c-13.114 0-23.781-10.678-23.781-23.802 0-13.118 10.667-23.79 23.781-23.79l151.059.013c.267-.035.569-.06.903-.06 5.795 0 10.733-4.456 11.347-10.188V431.24a5.903 5.903 0 0 1-.013-.393c0-13.125 10.673-23.802 23.792-23.802 13.12 0 23.794 10.677 23.794 23.802v73.382l-.041.354.005 118.759-.022.257c-.831 9.972-9.2 17.821-19.173 18.095l-.781.05H410.497l-.558.024z" id="Fill-1"/><path d="M123.415 137.039v325.652c0 128.164 104.254 232.432 232.402 232.432H545.57l4.489-.171c42.697-1.633 76.306-36.36 76.514-79.058l.012-2.528V287.312c0-128.164-104.254-232.432-232.402-232.432H208.065l-4.754.012c-.182 0-.362-.005-.542-.012-20.855.065-40.526 8.136-55.413 22.746-14.922 14.645-23.392 34.221-23.848 55.121l-.093 4.292zm432.307 582.835H355.817c-68.685 0-133.26-26.752-181.83-75.326-48.57-48.576-75.32-113.16-75.32-181.857V127.404l.336-.332c1.788-25.455 12.689-49.123 31.022-67.113 18.516-18.171 42.675-28.631 68.449-29.732l.095-.087 3.732-.009c.274-.001.556-.01.827-.001l.195-.001h190.86c68.689 0 133.266 26.752 181.834 75.326 48.567 48.574 75.316 113.159 75.316 181.857v331.653l-.073.138c-1.783 52.837-42.589 95.679-95.055 100.255l-.483.516z" id="Fill-3"/></g></svg>