<?xml version="1.0" encoding="UTF-8" standalone="no"?>
<!-- Created with Inkscape (http://www.inkscape.org/) -->

<svg
   xmlns:dc="http://purl.org/dc/elements/1.1/"
   xmlns:cc="http://creativecommons.org/ns#"
   xmlns:rdf="http://www.w3.org/1999/02/22-rdf-syntax-ns#"
   xmlns:svg="http://www.w3.org/2000/svg"
   xmlns="http://www.w3.org/2000/svg"
   xmlns:sodipodi="http://sodipodi.sourceforge.net/DTD/sodipodi-0.dtd"
   xmlns:inkscape="http://www.inkscape.org/namespaces/inkscape"
   width="100"
   height="100"
   viewBox="0 0 26.458333 26.458333"
   version="1.1"
   id="svg8"
   inkscape:version="0.92.3 (2405546, 2018-03-11)"
   sodipodi:docname="scaleway.svg">
  <defs
     id="defs2" />
  <sodipodi:namedview
     id="base"
     pagecolor="#ffffff"
     bordercolor="#666666"
     borderopacity="1.0"
     inkscape:pageopacity="0.0"
     inkscape:pageshadow="2"
     inkscape:zoom="3.959798"
     inkscape:cx="48.823665"
     inkscape:cy="30.748147"
     inkscape:document-units="mm"
     inkscape:current-layer="Layer_1"
     showgrid="false"
     units="px"
     inkscape:window-width="1858"
     inkscape:window-height="1057"
     inkscape:window-x="1912"
     inkscape:window-y="-8"
     inkscape:window-maximized="1" />
  <metadata
     id="metadata5">
    <rdf:RDF>
      <cc:Work
         rdf:about="">
        <dc:format>image/svg+xml</dc:format>
        <dc:type
           rdf:resource="http://purl.org/dc/dcmitype/StillImage" />
        <dc:title></dc:title>
      </cc:Work>
    </rdf:RDF>
  </metadata>
  <g
     inkscape:label="Layer 1"
     inkscape:groupmode="layer"
     id="layer1"
     transform="translate(0,-270.54166)">
    <g
       id="Layer_1"
       transform="matrix(0.04164219,0,0,0.04164219,-3.326582,274.4284)"
       style="fill:#5c2d73">
      <path
         id="path4526"
         d="m 309.21527,73.780972 v 40.067638 a 6.2871052,6.2871052 0 0 0 6.27884,6.28297 6.2891711,6.2891711 0 0 0 6.27886,-6.28297 l 0.0129,-84.717866 c 0.57437,-6.71272 6.30363,-11.970913 13.04321,-11.970913 l 77.49895,-0.02273 h 6.15488 a 6.2912372,6.2912372 0 0 0 6.27678,-6.287106 6.2871052,6.2871052 0 0 0 -6.27678,-6.2788391 h -104.98 a 4.0226729,4.0226729 0 0 1 -0.22313,0.00623 c -2.0599,0 -3.81401,1.5743593 -4.04539,3.605323 V 73.24381 c 0,0.212815 -0.009,0.37397 -0.0187,0.535125 z m 6.27884,53.162508 c -7.21683,0 -13.08865,-5.87597 -13.08865,-13.09487 l 0.003,-40.342432 0.0144,-0.258264 V 7.8789643 l 0.0129,-0.1404944 c 0.46075,-5.5350475 5.13011,-9.8800314 10.66722,-9.9709376 0.0806,-0.00415 0.16115,-0.00819 0.24173,-0.00819 h 105.13701 a 13.105195,13.105195 0 0 1 13.08913,13.0907307 c 0,7.223043 -5.87182,13.09693 -13.08866,13.09693 h -6.15281 l -77.50102,0.02478 a 6.3222286,6.3222286 0 0 0 -6.24578,5.611495 v 84.265392 c 0,7.21891 -5.87181,13.09488 -13.08867,13.09488 z m 37.68339,-9.21476 v 40.08624 a 6.2933034,6.2933034 0 0 0 6.29123,6.28297 6.285039,6.285039 0 0 0 6.27265,-6.28091 l 0.01,-84.71373 c 0.55991,-6.634208 6.15695,-11.849014 12.79528,-11.972979 l 0.0227,-0.0041 0.39255,-0.02273 h 83.48235 a 6.2912372,6.2912372 0 0 0 6.28297,-6.285039 6.2912372,6.2912372 0 0 0 -6.28297,-6.285041 h -103.9862 l -1.21072,0.01242 a 4.0639946,4.0639946 0 0 0 -4.0578,3.611521 v 65.052878 c 0,0.20453 -0.003,0.36155 -0.0129,0.51857 z m 6.29123,53.1811 a 13.113459,13.113459 0 0 1 -13.10106,-13.09486 l 0.001,-40.33417 c 0.007,-0.10114 0.01,-0.16116 0.01,-0.22315 V 51.84118 l 0.0129,-0.148756 a 10.832498,10.832498 0 0 1 9.66309,-9.894497 l 0.10114,-0.07644 h 106.28782 a 13.111393,13.111393 0 0 1 13.09486,13.096931 13.111393,13.111393 0 0 1 -13.09486,13.096937 h -83.23198 c -0.12398,0.01445 -0.26446,0.0227 -0.42148,0.0227 a 6.309832,6.309832 0 0 0 -6.23959,5.611491 V 157.817 c 0,7.21891 -5.86975,13.0928 -13.08246,13.0928 z m -26.8426,56.92484 c -3.52475,0 -6.34496,2.81608 -6.34496,6.27887 a 6.2953695,6.2953695 0 0 0 6.28503,6.29328 h 40.1131 c 0.1425,-0.0129 0.27686,-0.0205 0.41115,-0.0205 l 64.25534,0.007 c 0.12195,-0.0129 0.26031,-0.0227 0.41115,-0.0227 a 4.1115146,4.1115146 0 0 0 4.06192,-3.60532 l -0.007,-65.11069 0.003,-0.2686 10e-4,-0.0723 v -40.18714 a 6.285039,6.285039 0 0 0 -6.27057,-6.28506 6.2953695,6.2953695 0 0 0 -6.29124,6.28506 v 84.56496 l -0.0129,0.1405 c -0.55166,6.62594 -6.13009,11.83455 -12.76224,11.97503 l -0.13227,0.0146 -0.31611,0.0146 z m 40.37134,19.38405 H 332.5662 c -7.22099,0 -13.09487,-5.87802 -13.09487,-13.10518 a 13.107261,13.107261 0 0 1 13.09487,-13.09075 h 83.19723 c 0.13228,-0.0145 0.27892,-0.0247 0.44421,-0.0247 a 6.2974354,6.2974354 0 0 0 6.23752,-5.60529 v -84.20758 c 0,-7.28089 5.87801,-13.15479 13.10312,-13.15479 7.21271,0 13.08246,5.8739 13.08246,13.09488 v 40.18954 l -0.003,0.2314 0.003,0.16321 v 65.37309 l -0.0146,0.1467 a 10.832498,10.832498 0 0 1 -10.55976,9.9482 l -0.18182,0.0269 z m 3.42971,24.8137 a 6.2891711,6.2891711 0 0 0 0.24173,12.56804 h 40.14822 c 0.11992,-0.009 0.23966,-0.0129 0.37395,-0.0129 h 64.25328 c 0.1363,-0.0166 0.27478,-0.0247 0.4132,-0.0247 a 4.0908538,4.0908538 0 0 0 4.04954,-3.59913 v -65.06317 c 0,-0.20661 0.007,-0.38015 0.0206,-0.54957 v -40.03047 a 6.2933034,6.2933034 0 0 0 -6.28505,-6.28917 6.2933034,6.2933034 0 0 0 -6.28299,6.15903 l 0.003,0.19627 v 84.50505 l -0.0129,0.14463 c -0.56611,6.59289 -6.10529,11.78289 -12.69198,11.96058 l -0.18388,0.0393 z m 40.23292,12.58042 0.29133,3.3946 z m 0.29133,6.79951 h -40.28252 c -7.21891,0 -13.09073,-5.87803 -13.09073,-13.10106 a 13.107261,13.107261 0 0 1 13.09073,-13.09488 l 83.14351,0.009 c 0.14668,-0.0205 0.31197,-0.0331 0.49585,-0.0331 a 6.3180964,6.3180964 0 0 0 6.24579,-5.60737 v -84.04846 a 13.111393,13.111393 0 0 1 13.08867,-13.31593 13.111393,13.111393 0 0 1 13.09485,13.10106 v 40.38996 l -0.0206,0.19421 0.001,65.36482 -0.0129,0.14251 c -0.45662,5.48751 -5.064,9.80772 -10.55357,9.95854 l -0.42977,0.0269 h -64.46399 z"
         inkscape:connector-curvature="0"
         style="stroke-width:2.06608772" />
      <path
         id="Fill-3"
         d="m 259.0982,13.60616 v 179.24138 c 0,70.54244 57.38351,127.93009 127.91561,127.93009 h 104.44074 l 2.47104,-0.0931 a 43.681228,43.681228 0 0 0 42.11306,-43.51387 l 0.009,-1.39048 V 96.317855 c 0,-70.542439 -57.38352,-127.932158 -127.91562,-127.932158 h -102.441 l -2.61567,0.0062 a 7.1693246,7.1693246 0 0 1 -0.29958,-0.0062 43.503544,43.503544 0 0 0 -30.49958,12.520493 43.619245,43.619245 0 0 0 -13.12588,30.338431 z M 497.04333,334.40142 H 387.01381 c -37.80321,0 -73.34612,-14.72501 -100.07922,-41.46019 -26.73311,-26.73517 -41.45812,-62.28222 -41.45812,-100.09369 V 8.3045781 l 0.18595,-0.1838811 c 0.98345,-14.0101409 6.98544,-27.036825 17.07416,-36.939582 10.192,-9.999865 23.48934,-15.758052 37.67511,-16.363416 l 0.0517,-0.04751 2.05575,-0.0062 c 0.15084,0 0.3058,-0.0062 0.45455,0 h 105.15763 c 37.80735,0 73.35025,14.722939 100.08129,41.4581155 26.73306,26.7372645 41.45395,62.2843065 41.45395,100.0957755 v 182.54296 l -0.0393,0.0765 c -0.9814,29.08018 -23.44184,52.66252 -52.31954,55.18107 z"
         inkscape:connector-curvature="0"
         style="stroke-width:2.06608772" />
      <path
         style="fill:#5c2d73"
         id="Fill-1"
         d="m 190.83201,408.13218 -7.8,16.109 c -8.614,-4.983 -19.44,-8.46 -26.075,-8.46 -5.355,0 -8.963,1.97 -8.963,5.911 0,14.023 43.07,6.026 43.07,35.348 0,16.226 -14.434,24.802 -32.594,24.802 -13.619,0 -27.589,-5.1 -37.25,-12.981 l 8.032,-15.878 c 8.381,7.302 20.953,12.17 29.451,12.17 6.519,0 10.593,-2.434 10.593,-7.07 0,-14.371 -43.071,-5.795 -43.071,-34.537 0,-14.951 12.922,-24.454 32.478,-24.454 11.757,0 23.748,3.592 32.129,9.04"
         inkscape:connector-curvature="0" />
      <path
         style="fill:#5c2d73"
         id="Fill-4"
         d="m 256.95101,432.00718 -14.435,8.692 c -2.91,-4.057 -7.217,-6.491 -12.688,-6.491 -7.8,0 -13.154,6.375 -13.154,15.762 0,9.62 5.354,15.878 13.154,15.878 5.703,0 10.127,-2.318 12.805,-7.069 l 14.667,8.576 c -5.122,9.156 -15.25,14.487 -28.52,14.487 -19.324,0 -32.361,-12.749 -32.361,-31.756 0,-19.239 13.154,-32.103 32.594,-32.103 12.455,0 22.467,5.099 27.938,14.024"
         inkscape:connector-curvature="0" />
      <path
         style="fill:#5c2d73"
         id="Fill-6"
         d="m 301.07001,459.93718 v -5.562 h -12.688 c -6.054,0 -9.08,2.086 -9.08,6.721 0,4.52 3.259,7.418 8.846,7.418 6.287,0 11.641,-3.477 12.922,-8.577 m 19.789,-19.586 v 40.796 h -19.672 v -7.186 c -4.075,5.331 -10.71,8.113 -19.208,8.113 -13.387,0 -21.535,-8.113 -21.535,-19.587 0,-11.821 8.497,-18.775 24.096,-18.891 h 16.53 v -0.927 c 0,-6.142 -4.075,-9.851 -12.223,-9.851 -5.239,0 -12.106,1.854 -18.742,5.215 l -5.703,-13.212 c 9.778,-4.52 18.625,-7.07 29.102,-7.07 17.228,0 27.239,8.46 27.355,22.6"
         inkscape:connector-curvature="0" />
      <path
         style="fill:#5c2d73"
         id="Fill-8"
         d="m 335.17601,481.14718 h 20.139 v -85.995 h -20.139 z"
         inkscape:connector-curvature="0" />
      <path
         style="fill:#5c2d73"
         id="Fill-10"
         d="m 411.19101,444.52318 c 0,-7.649 -4.889,-12.632 -12.106,-12.632 -6.985,0 -11.758,5.099 -13.038,12.632 z m 19.323,10.779 h -44.118 c 1.978,7.417 7.333,11.589 14.783,11.589 5.472,0 10.826,-2.202 15.017,-6.374 l 10.593,10.315 c -6.402,6.953 -15.831,11.01 -27.356,11.01 -20.487,0 -33.292,-12.749 -33.292,-31.756 0,-19.354 13.27,-32.103 32.71,-32.103 22.118,0 33.06,14.487 31.663,37.319 z"
         inkscape:connector-curvature="0" />
      <path
         style="fill:#5c2d73"
         id="Fill-11"
         d="m 497.79801,481.14718 -12.339,-39.637 -12.34,39.637 h -20.022 l -22.932,-62.469 h 20.488 l 12.921,43.23 12.572,-43.23 h 19.208 l 12.921,43.23 12.688,-43.23 h 19.673 l -22.932,62.469 z"
         inkscape:connector-curvature="0" />
      <path
         style="fill:#5c2d73"
         id="Fill-12"
         d="m 581.02902,459.93718 v -5.562 h -12.688 c -6.05301,0 -9.08001,2.086 -9.08001,6.721 0,4.52 3.259,7.418 8.84701,7.418 6.286,0 11.641,-3.477 12.921,-8.577 m 19.789,-19.586 v 40.796 h -19.672 v -7.186 c -4.074,5.331 -10.71,8.113 -19.20801,8.113 -13.387,0 -21.535,-8.113 -21.535,-19.587 0,-11.821 8.497,-18.775 24.096,-18.891 h 16.53001 v -0.927 c 0,-6.142 -4.074,-9.851 -12.223,-9.851 -5.23801,0 -12.10601,1.854 -18.74101,5.215 l -5.704,-13.212 c 9.778,-4.52 18.625,-7.07 29.10201,-7.07 17.228,0 27.239,8.46 27.355,22.6"
         inkscape:connector-curvature="0" />
      <path
         style="fill:#5c2d73"
         id="Fill-13"
         d="m 646.79902,487.63718 c -4.656,11.358 -12.572,16.921 -24.212,16.921 -6.985,0 -12.689,-2.086 -18.276,-6.375 l 8.381,-13.676 c 2.91,2.319 5.355,3.361 8.265,3.361 3.608,0 6.169,-1.622 7.799,-4.983 l 1.513,-3.129 -26.075,-61.078 h 20.72 l 15.366,41.491 13.62,-41.491 h 20.023 z"
         inkscape:connector-curvature="0" />
    </g>
  </g>
</svg>
